<mxfile host="app.diagrams.net" agent="Mozilla/5.0 (Windows NT 10.0; Win64; x64) AppleWebKit/537.36 (KHTML, like Gecko) Chrome/129.0.0.0 Safari/537.36" version="24.7.7">
  <diagram id="C5RBs43oDa-KdzZeNtuy" name="Page-1">
    <mxGraphModel dx="1434" dy="744" grid="1" gridSize="10" guides="1" tooltips="1" connect="1" arrows="1" fold="1" page="1" pageScale="1" pageWidth="827" pageHeight="1169" math="0" shadow="0">
      <root>
        <mxCell id="WIyWlLk6GJQsqaUBKTNV-0" />
        <mxCell id="WIyWlLk6GJQsqaUBKTNV-1" parent="WIyWlLk6GJQsqaUBKTNV-0" />
        <mxCell id="KnXzSgCW62pfmTYXGS0J-14" style="edgeStyle=orthogonalEdgeStyle;rounded=0;orthogonalLoop=1;jettySize=auto;html=1;entryX=0.5;entryY=0;entryDx=0;entryDy=0;" edge="1" parent="WIyWlLk6GJQsqaUBKTNV-1" source="KnXzSgCW62pfmTYXGS0J-0" target="KnXzSgCW62pfmTYXGS0J-3">
          <mxGeometry relative="1" as="geometry" />
        </mxCell>
        <mxCell id="KnXzSgCW62pfmTYXGS0J-0" value="Start" style="strokeWidth=2;html=1;shape=mxgraph.flowchart.start_2;whiteSpace=wrap;" vertex="1" parent="WIyWlLk6GJQsqaUBKTNV-1">
          <mxGeometry x="364" y="40" width="100" height="100" as="geometry" />
        </mxCell>
        <mxCell id="KnXzSgCW62pfmTYXGS0J-2" value="Get Started Page" style="rounded=1;whiteSpace=wrap;html=1;absoluteArcSize=1;arcSize=14;strokeWidth=2;" vertex="1" parent="WIyWlLk6GJQsqaUBKTNV-1">
          <mxGeometry x="344" y="370" width="140" height="100" as="geometry" />
        </mxCell>
        <mxCell id="KnXzSgCW62pfmTYXGS0J-15" style="edgeStyle=orthogonalEdgeStyle;rounded=0;orthogonalLoop=1;jettySize=auto;html=1;entryX=0.5;entryY=0;entryDx=0;entryDy=0;" edge="1" parent="WIyWlLk6GJQsqaUBKTNV-1" source="KnXzSgCW62pfmTYXGS0J-3" target="KnXzSgCW62pfmTYXGS0J-2">
          <mxGeometry relative="1" as="geometry" />
        </mxCell>
        <mxCell id="KnXzSgCW62pfmTYXGS0J-3" value="Splash Screen" style="rounded=1;whiteSpace=wrap;html=1;absoluteArcSize=1;arcSize=14;strokeWidth=2;" vertex="1" parent="WIyWlLk6GJQsqaUBKTNV-1">
          <mxGeometry x="344" y="200" width="140" height="100" as="geometry" />
        </mxCell>
        <mxCell id="KnXzSgCW62pfmTYXGS0J-21" style="edgeStyle=orthogonalEdgeStyle;rounded=0;orthogonalLoop=1;jettySize=auto;html=1;entryX=0.5;entryY=0;entryDx=0;entryDy=0;" edge="1" parent="WIyWlLk6GJQsqaUBKTNV-1" source="KnXzSgCW62pfmTYXGS0J-4" target="KnXzSgCW62pfmTYXGS0J-7">
          <mxGeometry relative="1" as="geometry" />
        </mxCell>
        <mxCell id="KnXzSgCW62pfmTYXGS0J-32" style="edgeStyle=orthogonalEdgeStyle;rounded=0;orthogonalLoop=1;jettySize=auto;html=1;entryX=0;entryY=0.75;entryDx=0;entryDy=0;" edge="1" parent="WIyWlLk6GJQsqaUBKTNV-1" source="KnXzSgCW62pfmTYXGS0J-4" target="KnXzSgCW62pfmTYXGS0J-31">
          <mxGeometry relative="1" as="geometry">
            <Array as="points">
              <mxPoint x="30" y="570" />
              <mxPoint x="30" y="1375" />
            </Array>
          </mxGeometry>
        </mxCell>
        <mxCell id="KnXzSgCW62pfmTYXGS0J-4" value="Sign In Page" style="rounded=1;whiteSpace=wrap;html=1;absoluteArcSize=1;arcSize=14;strokeWidth=2;" vertex="1" parent="WIyWlLk6GJQsqaUBKTNV-1">
          <mxGeometry x="204" y="520" width="140" height="100" as="geometry" />
        </mxCell>
        <mxCell id="KnXzSgCW62pfmTYXGS0J-5" value="Sign Up Page" style="rounded=1;whiteSpace=wrap;html=1;absoluteArcSize=1;arcSize=14;strokeWidth=2;" vertex="1" parent="WIyWlLk6GJQsqaUBKTNV-1">
          <mxGeometry x="484" y="520" width="140" height="100" as="geometry" />
        </mxCell>
        <mxCell id="KnXzSgCW62pfmTYXGS0J-29" style="edgeStyle=orthogonalEdgeStyle;rounded=0;orthogonalLoop=1;jettySize=auto;html=1;entryX=1;entryY=0.25;entryDx=0;entryDy=0;" edge="1" parent="WIyWlLk6GJQsqaUBKTNV-1" source="KnXzSgCW62pfmTYXGS0J-6" target="KnXzSgCW62pfmTYXGS0J-2">
          <mxGeometry relative="1" as="geometry">
            <Array as="points">
              <mxPoint x="710" y="1040" />
              <mxPoint x="710" y="395" />
            </Array>
          </mxGeometry>
        </mxCell>
        <mxCell id="KnXzSgCW62pfmTYXGS0J-6" value="Sign Out Page" style="rounded=1;whiteSpace=wrap;html=1;absoluteArcSize=1;arcSize=14;strokeWidth=2;" vertex="1" parent="WIyWlLk6GJQsqaUBKTNV-1">
          <mxGeometry x="540" y="990" width="140" height="100" as="geometry" />
        </mxCell>
        <mxCell id="KnXzSgCW62pfmTYXGS0J-22" style="edgeStyle=orthogonalEdgeStyle;rounded=0;orthogonalLoop=1;jettySize=auto;html=1;entryX=0.5;entryY=0;entryDx=0;entryDy=0;startArrow=classic;startFill=1;" edge="1" parent="WIyWlLk6GJQsqaUBKTNV-1" source="KnXzSgCW62pfmTYXGS0J-7" target="KnXzSgCW62pfmTYXGS0J-11">
          <mxGeometry relative="1" as="geometry">
            <Array as="points">
              <mxPoint x="414" y="800" />
              <mxPoint x="414" y="800" />
            </Array>
          </mxGeometry>
        </mxCell>
        <mxCell id="KnXzSgCW62pfmTYXGS0J-23" style="edgeStyle=orthogonalEdgeStyle;rounded=0;orthogonalLoop=1;jettySize=auto;html=1;entryX=0.5;entryY=0;entryDx=0;entryDy=0;startArrow=classic;startFill=1;exitX=0;exitY=0.75;exitDx=0;exitDy=0;" edge="1" parent="WIyWlLk6GJQsqaUBKTNV-1" source="KnXzSgCW62pfmTYXGS0J-7" target="KnXzSgCW62pfmTYXGS0J-8">
          <mxGeometry relative="1" as="geometry">
            <mxPoint x="340" y="760" as="sourcePoint" />
          </mxGeometry>
        </mxCell>
        <mxCell id="KnXzSgCW62pfmTYXGS0J-24" style="edgeStyle=orthogonalEdgeStyle;rounded=0;orthogonalLoop=1;jettySize=auto;html=1;entryX=0.5;entryY=0;entryDx=0;entryDy=0;startArrow=classic;startFill=1;" edge="1" parent="WIyWlLk6GJQsqaUBKTNV-1" source="KnXzSgCW62pfmTYXGS0J-7" target="KnXzSgCW62pfmTYXGS0J-9">
          <mxGeometry relative="1" as="geometry" />
        </mxCell>
        <mxCell id="KnXzSgCW62pfmTYXGS0J-7" value="Home Page" style="rounded=1;whiteSpace=wrap;html=1;absoluteArcSize=1;arcSize=14;strokeWidth=2;" vertex="1" parent="WIyWlLk6GJQsqaUBKTNV-1">
          <mxGeometry x="344" y="680" width="140" height="100" as="geometry" />
        </mxCell>
        <mxCell id="KnXzSgCW62pfmTYXGS0J-8" value="Wallet Page" style="rounded=1;whiteSpace=wrap;html=1;absoluteArcSize=1;arcSize=14;strokeWidth=2;" vertex="1" parent="WIyWlLk6GJQsqaUBKTNV-1">
          <mxGeometry x="150" y="840" width="140" height="100" as="geometry" />
        </mxCell>
        <mxCell id="KnXzSgCW62pfmTYXGS0J-26" style="edgeStyle=orthogonalEdgeStyle;rounded=0;orthogonalLoop=1;jettySize=auto;html=1;entryX=0.5;entryY=0;entryDx=0;entryDy=0;" edge="1" parent="WIyWlLk6GJQsqaUBKTNV-1" source="KnXzSgCW62pfmTYXGS0J-9" target="KnXzSgCW62pfmTYXGS0J-6">
          <mxGeometry relative="1" as="geometry" />
        </mxCell>
        <mxCell id="KnXzSgCW62pfmTYXGS0J-9" value="Profile Page" style="rounded=1;whiteSpace=wrap;html=1;absoluteArcSize=1;arcSize=14;strokeWidth=2;" vertex="1" parent="WIyWlLk6GJQsqaUBKTNV-1">
          <mxGeometry x="540" y="840" width="140" height="100" as="geometry" />
        </mxCell>
        <mxCell id="KnXzSgCW62pfmTYXGS0J-28" style="edgeStyle=orthogonalEdgeStyle;rounded=0;orthogonalLoop=1;jettySize=auto;html=1;entryX=0.5;entryY=0;entryDx=0;entryDy=0;startArrow=classic;startFill=1;" edge="1" parent="WIyWlLk6GJQsqaUBKTNV-1" source="KnXzSgCW62pfmTYXGS0J-10" target="KnXzSgCW62pfmTYXGS0J-12">
          <mxGeometry relative="1" as="geometry" />
        </mxCell>
        <mxCell id="KnXzSgCW62pfmTYXGS0J-10" value="Choose Seat Page" style="rounded=1;whiteSpace=wrap;html=1;absoluteArcSize=1;arcSize=14;strokeWidth=2;" vertex="1" parent="WIyWlLk6GJQsqaUBKTNV-1">
          <mxGeometry x="344" y="990" width="140" height="100" as="geometry" />
        </mxCell>
        <mxCell id="KnXzSgCW62pfmTYXGS0J-27" style="edgeStyle=orthogonalEdgeStyle;rounded=0;orthogonalLoop=1;jettySize=auto;html=1;entryX=0.5;entryY=0;entryDx=0;entryDy=0;startArrow=classic;startFill=1;" edge="1" parent="WIyWlLk6GJQsqaUBKTNV-1" source="KnXzSgCW62pfmTYXGS0J-11" target="KnXzSgCW62pfmTYXGS0J-10">
          <mxGeometry relative="1" as="geometry" />
        </mxCell>
        <mxCell id="KnXzSgCW62pfmTYXGS0J-11" value="Destination Detail Page" style="rounded=1;whiteSpace=wrap;html=1;absoluteArcSize=1;arcSize=14;strokeWidth=2;" vertex="1" parent="WIyWlLk6GJQsqaUBKTNV-1">
          <mxGeometry x="344" y="840" width="140" height="100" as="geometry" />
        </mxCell>
        <mxCell id="KnXzSgCW62pfmTYXGS0J-30" style="edgeStyle=orthogonalEdgeStyle;rounded=0;orthogonalLoop=1;jettySize=auto;html=1;entryX=0;entryY=0.5;entryDx=0;entryDy=0;" edge="1" parent="WIyWlLk6GJQsqaUBKTNV-1" source="KnXzSgCW62pfmTYXGS0J-12" target="KnXzSgCW62pfmTYXGS0J-7">
          <mxGeometry relative="1" as="geometry">
            <Array as="points">
              <mxPoint x="130" y="1190" />
              <mxPoint x="130" y="730" />
            </Array>
          </mxGeometry>
        </mxCell>
        <mxCell id="KnXzSgCW62pfmTYXGS0J-12" value="Success Page" style="rounded=1;whiteSpace=wrap;html=1;absoluteArcSize=1;arcSize=14;strokeWidth=2;" vertex="1" parent="WIyWlLk6GJQsqaUBKTNV-1">
          <mxGeometry x="344" y="1140" width="140" height="100" as="geometry" />
        </mxCell>
        <mxCell id="KnXzSgCW62pfmTYXGS0J-16" style="edgeStyle=orthogonalEdgeStyle;rounded=0;orthogonalLoop=1;jettySize=auto;html=1;entryX=0.5;entryY=0;entryDx=0;entryDy=0;exitX=0;exitY=0.5;exitDx=0;exitDy=0;startArrow=classic;startFill=1;" edge="1" parent="WIyWlLk6GJQsqaUBKTNV-1" source="KnXzSgCW62pfmTYXGS0J-2" target="KnXzSgCW62pfmTYXGS0J-4">
          <mxGeometry relative="1" as="geometry" />
        </mxCell>
        <mxCell id="KnXzSgCW62pfmTYXGS0J-17" style="edgeStyle=orthogonalEdgeStyle;rounded=0;orthogonalLoop=1;jettySize=auto;html=1;entryX=0.471;entryY=0;entryDx=0;entryDy=0;exitX=1;exitY=0.5;exitDx=0;exitDy=0;entryPerimeter=0;endArrow=classic;endFill=1;startArrow=classic;startFill=1;" edge="1" parent="WIyWlLk6GJQsqaUBKTNV-1" source="KnXzSgCW62pfmTYXGS0J-2" target="KnXzSgCW62pfmTYXGS0J-5">
          <mxGeometry relative="1" as="geometry" />
        </mxCell>
        <mxCell id="KnXzSgCW62pfmTYXGS0J-18" style="edgeStyle=orthogonalEdgeStyle;rounded=0;orthogonalLoop=1;jettySize=auto;html=1;entryX=0.99;entryY=0.691;entryDx=0;entryDy=0;entryPerimeter=0;exitX=0;exitY=0.7;exitDx=0;exitDy=0;exitPerimeter=0;" edge="1" parent="WIyWlLk6GJQsqaUBKTNV-1" source="KnXzSgCW62pfmTYXGS0J-5" target="KnXzSgCW62pfmTYXGS0J-4">
          <mxGeometry relative="1" as="geometry">
            <mxPoint x="480" y="590" as="sourcePoint" />
          </mxGeometry>
        </mxCell>
        <mxCell id="KnXzSgCW62pfmTYXGS0J-31" value="Out Application" style="rounded=1;whiteSpace=wrap;html=1;absoluteArcSize=1;arcSize=14;strokeWidth=2;" vertex="1" parent="WIyWlLk6GJQsqaUBKTNV-1">
          <mxGeometry x="344" y="1300" width="140" height="100" as="geometry" />
        </mxCell>
        <mxCell id="KnXzSgCW62pfmTYXGS0J-33" style="edgeStyle=orthogonalEdgeStyle;rounded=0;orthogonalLoop=1;jettySize=auto;html=1;entryX=0.006;entryY=0.415;entryDx=0;entryDy=0;entryPerimeter=0;" edge="1" parent="WIyWlLk6GJQsqaUBKTNV-1" source="KnXzSgCW62pfmTYXGS0J-7" target="KnXzSgCW62pfmTYXGS0J-31">
          <mxGeometry relative="1" as="geometry">
            <Array as="points">
              <mxPoint x="80" y="700" />
              <mxPoint x="80" y="1341" />
            </Array>
          </mxGeometry>
        </mxCell>
      </root>
    </mxGraphModel>
  </diagram>
</mxfile>
